<svg width="720" height="240" viewBox="0 0 720 240" fill="none" xmlns="http://www.w3.org/2000/svg">
  <rect width="720" height="240" rx="36" fill="#0A0A0A"/>
  <g opacity="0.22" stroke="#F5E400" stroke-width="2.5">
    <ellipse cx="528" cy="120" rx="126" ry="88"/>
    <ellipse cx="528" cy="120" rx="102" ry="88"/>
    <ellipse cx="528" cy="120" rx="76" ry="88"/>
    <ellipse cx="528" cy="120" rx="126" ry="42"/>
    <ellipse cx="528" cy="120" rx="126" ry="62"/>
    <path d="M402 120H654"/>
    <path d="M528 32C553 58 568 88 568 120C568 152 553 182 528 208"/>
    <path d="M528 32C503 58 488 88 488 120C488 152 503 182 528 208"/>
  </g>
  <text x="34" y="78" fill="#F5F5F0" font-family="Arial Black, Arial, sans-serif" font-size="42" font-weight="900">
    Fitness World Japan
  </text>
  <text x="34" y="176" fill="#F5E400" font-family="Arial Black, Arial, sans-serif" font-size="122" font-style="italic" font-weight="900" letter-spacing="-4">
    FWJ
  </text>
  <text x="36" y="218" fill="#F5F5F0" font-family="Arial, sans-serif" font-size="20" font-weight="700" letter-spacing="1.1">
    Bodybuilding  Bikini  Physique  Classic Physique  Figure
  </text>
</svg>
